<?xml version="1.0" encoding="utf-8"?>
<!-- Generator: Adobe Illustrator 27.0.0, SVG Export Plug-In . SVG Version: 6.00 Build 0)  -->
<svg version="1.1" id="Layer_1" xmlns="http://www.w3.org/2000/svg" xmlns:xlink="http://www.w3.org/1999/xlink" x="0px" y="0px"
	 viewBox="0 0 439 68.8" style="enable-background:new 0 0 439 68.8;" xml:space="preserve">
<style type="text/css">
	.st0{fill:#FFFFFF;}
</style>
<g>
	<path class="st0" d="M246.4,46.4h5.4v-7.8h-6.2v-5.8h8.3V25h-8.3v-6.2h5.5v-8.1h-35.6c0.7-0.9,1.2-1.8,1.8-2.7l-8.4-3.9
		c-2.2,3.3-5,6.8-8.3,10.1c-1.7,1.7-3.4,3.2-5.1,4.7l7.4,5.1c0.8-0.7,1.7-1.4,2.5-2.1v3.2h-8.2v7.8h8.2v5.8h-5.7v7.8h5.6
		c-2,4-5.4,8.6-7.9,10.9l7.2,5.5c3.5-3.4,6.8-8,9.3-13.5l-5.6-2.9h35.9l-5.8,3.4c2.8,3.8,6.1,8.5,8,12.4l7.9-4
		C252.6,54.7,249.3,49.7,246.4,46.4 M236.8,38.6h-2.2v-5.8h2.2V38.6z M226.6,38.6h-2.3v-5.8h2.3V38.6z M224.3,18.8h2.3V25h-2.3V18.8
		z M236.8,25h-2.2v-6.2h2.2V25z M214,18.8h2.3V25H214V18.8z M214,32.8h2.3v5.8H214V32.8z"/>
	<path class="st0" d="M215.1,49.1c1.2,2.8,3.2,10.4,3.2,12.7l8.6-1.9c-1-5.8-1.9-9-4-12.8L215.1,49.1z"/>
	<path class="st0" d="M226.6,49.6c1.5,2.6,4.3,9.5,4.6,12.3l8.7-2.2c-1.2-5.3-2.8-8.7-4.9-12.4L226.6,49.6z"/>
	<path class="st0" d="M316.2,11.7h-26.6v1.4L284,7.9c-4.5,2.7-11.4,4.9-19.3,5.9c-0.1,0-0.2,0-0.3,0v46h9.4v-3h14.3v-9.2h-14.3V36.9
		h14.3v-8.7h-14.3v-7.5c6.2-1.2,11.7-3,15.8-5.2v47.3h9.5V20.5h7.6v27.1h-6.2l3.2,9.7h4.7c4.3,0,7.8-3.3,7.8-7.4L316.2,11.7
		L316.2,11.7z"/>
	<path class="st0" d="M365,49.1c0.7-0.7,1.5-1.4,2.3-2.1c2.5-2.6,4.8-5.2,6.5-7.6l-2.6-2.5V12.1h-15.7V4.8h-10.2v7.3h-16.1v40.3l0,0
		c-2,0.4-3.9,0.8-5.8,1.2l1.9,9.6c1-0.2,2-0.5,3-0.7c8.7-2.1,16.6-4.6,22.8-7.1v-6c5.8,6.1,13.9,11.4,23,14.4l5-8.3
		C373.6,53.7,368.9,51.5,365,49.1 M361.1,30.5h-22v-2.1h22V30.5z M362.5,38.7c-0.7,0.9-1.5,1.9-2.3,2.8c-0.6,0.7-1.3,1.5-2,2.1
		c-1.4-1.6-2.6-3.2-3.5-4.9L362.5,38.7L362.5,38.7z M361.1,22h-22v-2.1h22V22z M339,49.9V38.6h4.8c1.2,2.8,2.9,5.6,5.1,8.2
		C345.9,48,342.6,49,339,49.9"/>
	<path class="st0" d="M428.5,9L428.5,9h-33v23.4h33V9z M404.6,16.7h14.8v7.7h-14.8V16.7z"/>
	<path class="st0" d="M385,35.2v27.6h9.1v-2h7.2v2h9.1V35.2l0,0H385L385,35.2z M394.1,43.4h7.2v9.7h-7.2V43.4z"/>
	<path class="st0" d="M439,35.2h-25.8v27.6h9.3v-2h7.2v2h9.3V35.2z M422.5,43.4h7.2v9.7h-7.2V43.4z"/>
	<polygon class="st0" points="167.2,67.2 151.4,67.2 151.4,0 167.2,0 	"/>
	<polygon class="st0" points="42.1,19 33,67.2 21.9,67.2 12.8,19 12.8,67.2 0,67 0,0 19.5,0 27.4,42 35.4,0 55.6,0 55.6,67.2 
		42.1,67.2 	"/>
	<path class="st0" d="M104.5,50.4c0,11.6-9.5,18.3-21.1,18.3S62.3,62,62.3,50.4L62.2,0H78v50.1c0,2.9,2.4,5.2,5.2,5.2
		c2.9,0,5.2-2.3,5.2-5.2V0h15.9L104.5,50.4z"/>
	<path class="st0" d="M144.5,52.5c0,10.1-8.3,16.3-18.4,16.3s-18.4-6.2-18.4-16.3c0-2.5,0-6.2,0-9.8h14.1v9.8c0,1.9,1.5,3.4,3.4,3.4
		s3.4-1.5,3.4-3.4V0h15.8L144.5,52.5z"/>
</g>
</svg>
